<svg id="Слой_1" data-name="Слой 1" xmlns="http://www.w3.org/2000/svg" viewBox="0 0 135.06 133.5"><defs><style>.cls-1{fill:#52ae32;}.cls-2{fill:#fff;}</style></defs><path class="cls-1" d="M60.87,9A6.6,6.6,0,0,1,74.06,9l.13,117.87h0a6.6,6.6,0,0,1-13.2,0L60.87,9.05Z"/><path class="cls-1" d="M128.46,0a6.6,6.6,0,0,1,0,13.19L6.61,13.31h0A6.6,6.6,0,1,1,6.59.12L128.45,0Z"/><path class="cls-2" d="M67.52,213.93A167.26,167.26,0,0,1-51.33,164.82a167.27,167.27,0,0,1-49.51-119C-101-47-25.59-122.65,67.25-122.8h.29A167.26,167.26,0,0,1,186.39-73.69a167.3,167.3,0,0,1,49.51,119c.15,92.84-75.25,168.5-168.09,168.65Zm0-323.54h-.27c-85.56.14-155.06,69.87-154.92,155.43A154.16,154.16,0,0,0-42,155.47,154.13,154.13,0,0,0,67.52,200.74h.27c85.56-.14,155.06-69.87,154.92-155.44A154.12,154.12,0,0,0,177.07-64.34,154.13,154.13,0,0,0,67.54-109.61"/></svg>